<svg width="28" height="26" viewBox="0 0 28 26" fill="none" xmlns="http://www.w3.org/2000/svg">
<path d="M26.731 12.7942L14.6636 0.735572C14.5767 0.648513 14.4735 0.579445 14.3599 0.53232C14.2463 0.485194 14.1245 0.460938 14.0015 0.460938C13.8785 0.460938 13.7567 0.485194 13.6431 0.53232C13.5294 0.579445 13.4262 0.648513 13.3394 0.735572L1.27197 12.7942C0.92041 13.1457 0.721191 13.6233 0.721191 14.1213C0.721191 15.1555 1.56201 15.9963 2.59619 15.9963H3.86768V24.6008C3.86768 25.1194 4.28662 25.5383 4.80518 25.5383H12.1265V18.9758H15.4077V25.5383H23.1978C23.7163 25.5383 24.1353 25.1194 24.1353 24.6008V15.9963H25.4067C25.9048 15.9963 26.3823 15.8 26.7339 15.4455C27.4634 14.7131 27.4634 13.5266 26.731 12.7942Z" fill="#F28E36"/>
</svg>
