<svg width="30" height="30" viewBox="0 0 30 30" fill="none" xmlns="http://www.w3.org/2000/svg">
<path d="M16.4167 0.875977V3.73764C22.6358 4.50264 27.0417 10.1551 26.2767 16.3743C25.625 21.531 21.5733 25.6251 16.4167 26.2343V29.0676C24.2083 28.2885 29.875 21.3751 29.0958 13.5835C28.4583 6.85431 23.1175 1.54181 16.4167 0.875977ZM13.5833 0.918477C10.8208 1.18764 8.18584 2.25014 6.03251 4.03514L8.05834 6.13181C9.64501 4.85681 11.5575 4.03514 13.5833 3.75181V0.918477ZM4.03501 6.03264C2.26369 8.18221 1.17363 10.8112 0.904175 13.5835H3.73751C4.00668 11.5718 4.80001 9.65931 6.06084 8.05848L4.03501 6.03264ZM0.918341 16.4168C1.20167 19.1935 2.29251 21.8143 4.04917 23.9676L6.06084 21.9418C4.80983 20.3404 4.01228 18.4322 3.75167 16.4168H0.918341ZM8.05834 24.0243L6.03251 25.9651C8.17845 27.754 10.8056 28.8679 13.5833 29.1668V26.3335C11.568 26.0729 9.65975 25.2753 8.05834 24.0243ZM15.7083 7.91681V15.3543L22.0833 19.1368L21.0208 20.8793L13.5833 16.4168V7.91681H15.7083Z" fill="black"/>
</svg>
