<svg width="35" height="35" viewBox="0 0 35 35" fill="none" xmlns="http://www.w3.org/2000/svg">
<path d="M16.1531 23.9812L15.8577 31.5325L15.8185 31.9846L7.54449 31.3896C7.04687 31.3362 6.58138 31.1085 6.22429 30.7435C5.83476 30.3743 5.52299 29.9249 5.30869 29.4237L5.29889 29.3989C5.15744 29.0448 5.06232 28.6726 5.01609 28.2921L5.01329 28.2702C4.97041 27.8144 4.99877 27.3544 5.09729 26.9081L5.09169 26.9358C5.19062 26.4293 5.26762 26.053 5.32269 25.8071C5.46549 25.2704 5.60969 24.8344 5.77629 24.4085L5.74689 24.4946C5.96996 23.8655 6.09456 23.5044 6.12069 23.411C7.14642 23.5734 10.4896 23.7639 16.1503 23.9827L16.1531 23.9812ZM8.52729 11.9573L12.0735 19.7346L9.17829 17.8475C8.41009 18.7546 7.69748 19.7112 7.04469 20.7117L6.98309 20.8123C6.49029 21.5458 6.01429 22.3873 5.60269 23.2652L5.55509 23.3775C5.23962 24.0998 4.98062 24.7464 4.77809 25.3171C4.62076 25.7202 4.5012 26.1383 4.42109 26.5654L4.41409 26.6106L4.33569 27.0408L0.593489 19.7156C0.374392 19.3758 0.251636 18.9785 0.239289 18.5694V18.565C0.213423 18.2331 0.254433 17.8993 0.359689 17.585L0.355489 17.6025L0.512289 17.2335C0.974289 16.3721 1.72282 15.0883 2.75789 13.3821L0.00408936 11.6102L8.52729 11.9573ZM32.7753 22.5667L29.0779 29.9327C28.9306 30.3129 28.6837 30.6424 28.3653 30.8835L28.3597 30.8879C28.1123 31.091 27.8243 31.2336 27.5169 31.305L27.5029 31.3079L27.1487 31.3896C26.2163 31.4848 24.7785 31.5651 22.8353 31.6302L22.9921 35.0004L18.4617 27.4696L22.6211 20.0408L22.7583 23.5904C24.6437 23.8055 26.5442 23.8377 28.4353 23.6867L28.3317 23.6939C29.5053 23.616 30.6641 23.3782 31.7785 22.9867L31.6833 23.0158L32.7753 22.5667ZM17.3165 3.6054C16.7005 4.46679 14.9603 7.44228 12.0959 12.5319L5.85609 8.69499L5.48229 8.45436L9.91469 1.14957C10.1947 0.714987 10.6007 0.389779 11.0781 0.227904L11.0935 0.223529C11.6023 0.0303858 12.1468 -0.0389522 12.6853 0.0208203L12.6699 0.019362C13.0213 0.0514453 13.3461 0.137487 13.6471 0.268737L13.6261 0.259987C13.9439 0.394154 14.2127 0.539987 14.4675 0.706237L14.4451 0.693112C14.7503 0.906029 15.0177 1.12915 15.2641 1.3727L15.2613 1.36978C15.5768 1.67117 15.8134 1.90693 15.9711 2.07707C16.1288 2.24721 16.3654 2.517 16.6809 2.88645C16.9992 3.25589 17.211 3.49554 17.3165 3.6054ZM30.2189 9.90394L34.3951 17.3531C34.6328 17.8401 34.7185 18.3923 34.6401 18.9325L34.6415 18.9179C34.5661 19.4646 34.3785 19.9878 34.0913 20.4521L34.0997 20.4375C33.9201 20.72 33.7028 20.9743 33.4543 21.1929L33.4487 21.1973C33.2212 21.4021 32.9793 21.5889 32.7249 21.7558L32.6997 21.7704C32.4281 21.9381 32.1117 22.0898 31.7813 22.2094L31.7435 22.221C31.3431 22.3717 31.0351 22.4811 30.8195 22.5492C30.6039 22.6172 30.2656 22.713 29.8045 22.8364L28.8987 23.0771C28.4516 22.0922 26.7114 19.1099 23.6781 14.1302L29.8437 10.1285L30.2189 9.90394ZM27.4021 5.26645L30.1993 3.56311L25.8663 11.2179L17.6105 10.8081L20.5855 9.04353C20.1448 7.82122 19.6261 6.63099 19.0329 5.48082L19.1085 5.64124C18.6624 4.73787 18.1518 3.87064 17.5811 3.04686L17.6203 3.10665C17.1676 2.46985 16.7439 1.92249 16.3491 1.46457C16.0698 1.12447 15.7645 0.808439 15.4363 0.51957L15.4251 0.509362L15.0905 0.242487L23.0635 0.262904C23.461 0.218364 23.8623 0.29539 24.2185 0.48457L24.2073 0.478737C24.5111 0.621654 24.7673 0.819987 24.9773 1.06353L24.9787 1.06645L25.1957 1.37415C25.7081 2.20443 26.4436 3.50186 27.4021 5.26645Z" fill="#F28E36"/>
</svg>
