<svg width="44" height="44" viewBox="0 0 44 44" fill="none" xmlns="http://www.w3.org/2000/svg">
<circle cx="22" cy="22" r="22" fill="#E6E0E0"/>
<g clip-path="url(#clip0)">
<path d="M25.707 11.8854C26.961 12.5168 28.0962 13.5915 29.1456 15.1348C29.8095 16.2511 30.186 17.5146 30.2412 18.8121C30.3083 20.1596 29.9849 21.5808 29.2809 23.0735L29.2182 23.1835L22.5929 32.6897C22.5279 32.7855 22.4404 32.8639 22.3381 32.918C22.2358 32.9722 22.1218 33.0005 22.0061 33.0005C21.8904 33.0005 21.7764 32.9722 21.6741 32.918C21.5718 32.8639 21.4843 32.7855 21.4192 32.6897L14.9754 23.4497C14.4777 22.6678 14.1162 21.8072 13.9062 20.9043C13.4805 19.0057 13.9062 16.3877 15.411 14.3329C16.8806 12.3265 18.931 11.3464 21.0034 11.0758C22.5852 10.8679 24.0922 11.0714 25.7081 11.8854H25.707ZM21.1849 12.5564C19.4645 12.7808 17.765 13.5937 16.5649 15.2327C15.3329 16.9146 14.9809 19.0794 15.3142 20.5677C15.4682 21.2585 15.7608 21.9493 16.17 22.6093L22.0055 30.9759L28.0071 22.364C28.5912 21.1078 28.8508 19.9506 28.7969 18.8891C28.7419 17.8001 28.4493 16.8145 27.9389 15.9554C27.0457 14.6442 26.0887 13.7389 25.0734 13.2274C23.7281 12.5487 22.5016 12.3837 21.1849 12.5564ZM22.0341 15.2349C24.189 15.2349 25.9435 16.9938 25.9435 19.1729C25.9435 21.3542 24.189 23.1131 22.0341 23.1131C19.8803 23.1131 18.1247 21.3542 18.1247 19.174C18.1247 16.9938 19.8803 15.236 22.0341 15.236V15.2349ZM22.0341 16.7276C20.6701 16.7276 19.5701 17.8276 19.5701 19.174C19.5701 20.5193 20.6701 21.6204 22.0341 21.6204C23.3992 21.6204 24.4981 20.5204 24.4981 19.174C24.497 18.8516 24.4323 18.5326 24.3079 18.2352C24.1834 17.9377 24.0016 17.6677 23.7728 17.4405C23.544 17.2134 23.2727 17.0335 22.9744 16.9112C22.6761 16.7888 22.3566 16.7265 22.0341 16.7276Z" fill="#008000"/>
</g>
<defs>
<clipPath id="clip0">
<rect width="22" height="22" fill="white" transform="translate(11 11)"/>
</clipPath>
</defs>
</svg>
