<svg width="115" height="25" viewBox="0 0 115 25" fill="none" xmlns="http://www.w3.org/2000/svg">
<path fill-rule="evenodd" clip-rule="evenodd" d="M14.5455 3.63636H20V5.45455H18.1818V21.8182L16.3636 23.6364H3.63636L1.81818 21.8182V5.45455H0V3.63636H5.45455V1.81818C5.45455 1.33597 5.6461 0.873508 5.98708 0.532533C6.32805 0.191558 6.79052 0 7.27273 0H12.7273C13.2095 0 13.6719 0.191558 14.0129 0.532533C14.3539 0.873508 14.5455 1.33597 14.5455 1.81818V3.63636ZM12.7273 1.81818H7.27273V3.63636H12.7273V1.81818ZM3.63636 21.8182H16.3636V5.45455H3.63636V21.8182ZM7.27273 7.27273H5.45455V20H7.27273V7.27273ZM9.09091 7.27273H10.9091V20H9.09091V7.27273ZM12.7273 7.27273H14.5455V20H12.7273V7.27273Z" fill="#F28E36"/>
<path d="M32.722 20L29.95 15.104H28.762V20H26.242V7.436H30.958C31.93 7.436 32.758 7.61 33.442 7.958C34.126 8.294 34.636 8.756 34.972 9.344C35.32 9.92 35.494 10.568 35.494 11.288C35.494 12.116 35.254 12.866 34.774 13.538C34.294 14.198 33.58 14.654 32.632 14.906L35.638 20H32.722ZM28.762 13.214H30.868C31.552 13.214 32.062 13.052 32.398 12.728C32.734 12.392 32.902 11.93 32.902 11.342C32.902 10.766 32.734 10.322 32.398 10.01C32.062 9.686 31.552 9.524 30.868 9.524H28.762V13.214ZM47.0433 14.798C47.0433 15.158 47.0193 15.482 46.9713 15.77H39.6813C39.7413 16.49 39.9933 17.054 40.4373 17.462C40.8813 17.87 41.4273 18.074 42.0753 18.074C43.0113 18.074 43.6773 17.672 44.0733 16.868H46.7913C46.5033 17.828 45.9513 18.62 45.1353 19.244C44.3193 19.856 43.3173 20.162 42.1293 20.162C41.1693 20.162 40.3053 19.952 39.5373 19.532C38.7813 19.1 38.1873 18.494 37.7553 17.714C37.3353 16.934 37.1252 16.034 37.1252 15.014C37.1252 13.982 37.3353 13.076 37.7553 12.296C38.1753 11.516 38.7633 10.916 39.5193 10.496C40.2753 10.076 41.1453 9.866 42.1293 9.866C43.0773 9.866 43.9233 10.07 44.6673 10.478C45.4233 10.886 46.0053 11.468 46.4133 12.224C46.8333 12.968 47.0433 13.826 47.0433 14.798ZM44.4333 14.078C44.4213 13.43 44.1873 12.914 43.7313 12.53C43.2753 12.134 42.7173 11.936 42.0573 11.936C41.4333 11.936 40.9053 12.128 40.4733 12.512C40.0533 12.884 39.7953 13.406 39.6993 14.078H44.4333ZM48.2346 15.014C48.2346 13.982 48.4446 13.082 48.8646 12.314C49.2846 11.534 49.8666 10.934 50.6106 10.514C51.3546 10.082 52.2066 9.866 53.1666 9.866C54.4026 9.866 55.4226 10.178 56.2266 10.802C57.0426 11.414 57.5886 12.278 57.8646 13.394H55.1466C55.0026 12.962 54.7566 12.626 54.4086 12.386C54.0726 12.134 53.6526 12.008 53.1486 12.008C52.4286 12.008 51.8586 12.272 51.4386 12.8C51.0186 13.316 50.8086 14.054 50.8086 15.014C50.8086 15.962 51.0186 16.7 51.4386 17.228C51.8586 17.744 52.4286 18.002 53.1486 18.002C54.1686 18.002 54.8346 17.546 55.1466 16.634H57.8646C57.5886 17.714 57.0426 18.572 56.2266 19.208C55.4106 19.844 54.3906 20.162 53.1666 20.162C52.2066 20.162 51.3546 19.952 50.6106 19.532C49.8666 19.1 49.2846 18.5 48.8646 17.732C48.4446 16.952 48.2346 16.046 48.2346 15.014ZM64.1388 20.162C63.1788 20.162 62.3148 19.952 61.5468 19.532C60.7788 19.1 60.1728 18.494 59.7288 17.714C59.2968 16.934 59.0808 16.034 59.0808 15.014C59.0808 13.994 59.3028 13.094 59.7468 12.314C60.2028 11.534 60.8208 10.934 61.6008 10.514C62.3808 10.082 63.2508 9.866 64.2108 9.866C65.1708 9.866 66.0408 10.082 66.8208 10.514C67.6008 10.934 68.2128 11.534 68.6568 12.314C69.1128 13.094 69.3408 13.994 69.3408 15.014C69.3408 16.034 69.1068 16.934 68.6387 17.714C68.1828 18.494 67.5588 19.1 66.7668 19.532C65.9868 19.952 65.1108 20.162 64.1388 20.162ZM64.1388 17.966C64.5948 17.966 65.0208 17.858 65.4168 17.642C65.8248 17.414 66.1488 17.078 66.3888 16.634C66.6288 16.19 66.7488 15.65 66.7488 15.014C66.7488 14.066 66.4968 13.34 65.9928 12.836C65.5008 12.32 64.8948 12.062 64.1748 12.062C63.4548 12.062 62.8488 12.32 62.3568 12.836C61.8768 13.34 61.6368 14.066 61.6368 15.014C61.6368 15.962 61.8708 16.694 62.3388 17.21C62.8188 17.714 63.4188 17.966 64.1388 17.966ZM73.7093 6.68V20H71.1893V6.68H73.7093ZM75.551 14.978C75.551 13.97 75.749 13.076 76.145 12.296C76.553 11.516 77.099 10.916 77.783 10.496C78.479 10.076 79.253 9.866 80.105 9.866C80.849 9.866 81.497 10.016 82.049 10.316C82.613 10.616 83.063 10.994 83.399 11.45V10.028H85.937V20H83.399V18.542C83.075 19.01 82.625 19.4 82.049 19.712C81.485 20.012 80.831 20.162 80.087 20.162C79.247 20.162 78.479 19.946 77.783 19.514C77.099 19.082 76.553 18.476 76.145 17.696C75.749 16.904 75.551 15.998 75.551 14.978ZM83.399 15.014C83.399 14.402 83.279 13.88 83.039 13.448C82.799 13.004 82.475 12.668 82.067 12.44C81.659 12.2 81.221 12.08 80.753 12.08C80.285 12.08 79.853 12.194 79.457 12.422C79.061 12.65 78.737 12.986 78.485 13.43C78.245 13.862 78.125 14.378 78.125 14.978C78.125 15.578 78.245 16.106 78.485 16.562C78.737 17.006 79.061 17.348 79.457 17.588C79.865 17.828 80.297 17.948 80.753 17.948C81.221 17.948 81.659 17.834 82.067 17.606C82.475 17.366 82.799 17.03 83.039 16.598C83.279 16.154 83.399 15.626 83.399 15.014ZM90.9183 11.468C91.2423 11.012 91.6863 10.634 92.2503 10.334C92.8263 10.022 93.4803 9.866 94.2123 9.866C95.0643 9.866 95.8323 10.076 96.5163 10.496C97.2123 10.916 97.7583 11.516 98.1543 12.296C98.5623 13.064 98.7663 13.958 98.7663 14.978C98.7663 15.998 98.5623 16.904 98.1543 17.696C97.7583 18.476 97.2123 19.082 96.5163 19.514C95.8323 19.946 95.0643 20.162 94.2123 20.162C93.4803 20.162 92.8323 20.012 92.2683 19.712C91.7163 19.412 91.2663 19.034 90.9183 18.578V24.752H88.3983V10.028H90.9183V11.468ZM96.1923 14.978C96.1923 14.378 96.0663 13.862 95.8143 13.43C95.5743 12.986 95.2503 12.65 94.8423 12.422C94.4463 12.194 94.0143 12.08 93.5463 12.08C93.0903 12.08 92.6583 12.2 92.2503 12.44C91.8543 12.668 91.5303 13.004 91.2783 13.448C91.0383 13.892 90.9183 14.414 90.9183 15.014C90.9183 15.614 91.0383 16.136 91.2783 16.58C91.5303 17.024 91.8543 17.366 92.2503 17.606C92.6583 17.834 93.0903 17.948 93.5463 17.948C94.0143 17.948 94.4463 17.828 94.8423 17.588C95.2503 17.348 95.5743 17.006 95.8143 16.562C96.0663 16.118 96.1923 15.59 96.1923 14.978ZM103.117 11.468C103.441 11.012 103.885 10.634 104.449 10.334C105.025 10.022 105.679 9.866 106.411 9.866C107.263 9.866 108.031 10.076 108.715 10.496C109.411 10.916 109.957 11.516 110.353 12.296C110.761 13.064 110.965 13.958 110.965 14.978C110.965 15.998 110.761 16.904 110.353 17.696C109.957 18.476 109.411 19.082 108.715 19.514C108.031 19.946 107.263 20.162 106.411 20.162C105.679 20.162 105.031 20.012 104.467 19.712C103.915 19.412 103.465 19.034 103.117 18.578V24.752H100.597V10.028H103.117V11.468ZM108.391 14.978C108.391 14.378 108.265 13.862 108.013 13.43C107.773 12.986 107.449 12.65 107.041 12.422C106.645 12.194 106.213 12.08 105.745 12.08C105.289 12.08 104.857 12.2 104.449 12.44C104.053 12.668 103.729 13.004 103.477 13.448C103.237 13.892 103.117 14.414 103.117 15.014C103.117 15.614 103.237 16.136 103.477 16.58C103.729 17.024 104.053 17.366 104.449 17.606C104.857 17.834 105.289 17.948 105.745 17.948C106.213 17.948 106.645 17.828 107.041 17.588C107.449 17.348 107.773 17.006 108.013 16.562C108.265 16.118 108.391 15.59 108.391 14.978Z" fill="#F28E36"/>
</svg>
