<svg width="30" height="30" viewBox="0 0 30 30" fill="none" xmlns="http://www.w3.org/2000/svg">
<path d="M15 0C13.0385 0 11.5385 1.5 11.5385 3.46154V10.3846C11.5385 12.3462 13.0385 13.8462 15 13.8462H21.9231L26.5385 18.4615V13.8462C28.5 13.8462 30 12.3462 30 10.3846V3.46154C30 1.5 28.5 0 26.5385 0H15ZM19.8323 3.46154H21.8146L23.7623 10.3846H22.0315L21.5619 8.65385H19.8312L19.3996 10.3846H17.8846L19.8323 3.46154ZM20.7692 4.61538C20.6538 5.07692 20.5246 5.64 20.4081 5.98615L20.085 7.5H21.4546L21.1292 5.985C20.8996 5.64 20.7692 5.07692 20.7692 4.61538ZM3.46154 11.5385C1.5 11.5385 0 13.0385 0 15V21.9231C0 23.8846 1.5 25.3846 3.46154 25.3846V30L8.07692 25.3846H15C16.9615 25.3846 18.4615 23.8846 18.4615 21.9231V15H15C12.8077 15 11.07 13.5 10.4931 11.5385H3.46154ZM8.76231 14.8915C10.7238 14.8915 11.6469 16.5069 11.6469 18.3531C11.6469 19.9685 11.0919 20.9931 10.1688 21.4546C10.6304 21.6854 11.1773 21.8077 11.7542 21.9231L11.3227 23.0769C10.515 22.8462 9.67731 22.4862 8.86962 22.1388C8.75423 22.0235 8.55231 22.0315 8.43692 22.0315C7.05231 21.9162 5.76923 20.7692 5.76923 18.4615C5.76923 16.5 6.91615 14.8915 8.76231 14.8915ZM8.76231 16.1538C7.83923 16.1538 7.39154 17.1923 7.39154 18.4615C7.39154 19.8462 7.83923 20.7692 8.76231 20.7692C9.68538 20.7692 10.1677 19.7308 10.1677 18.4615C10.1677 17.1923 9.68538 16.1538 8.76231 16.1538Z" fill="#008000"/>
</svg>
