<svg width="44" height="44" viewBox="0 0 44 44" fill="none" xmlns="http://www.w3.org/2000/svg">
<circle cx="22" cy="22" r="22" fill="#E6E0E0"/>
<path d="M21.9713 11C21.4701 10.9994 20.9767 11.1303 20.5366 11.3807C20.0966 11.6311 19.7239 11.9929 19.453 12.4329L16.877 16.8501L18.4521 17.834L21.0272 13.4465C21.5217 12.6775 22.4585 12.6603 22.943 13.4465L25.8047 18.2228L24.4311 19.0597L28.6683 21.5367V16.4613L27.3524 17.2676L24.4906 12.4339C24.2197 11.9939 23.8471 11.6321 23.407 11.3817C22.9669 11.1313 22.4735 11.0004 21.9723 11.001L21.9713 11ZM16.8486 18.7607L12.7277 21.2386L13.8724 21.9551L11.5262 25.9845L11.4969 25.9558C11.4859 25.972 11.5079 25.9978 11.4969 26.0131C10.1507 28.1434 11.7039 31.0894 14.1874 31.0894H19.2241V29.1789H14.1874C13.0271 29.1789 12.4053 27.9848 13.0152 27.0582L13.0427 27.0295V27.0009L15.4466 22.9409L16.8477 23.8351V18.7607H16.8486ZM30.27 22.1634L28.6967 23.1788L30.9861 26.9999C31.5722 28.0383 30.9064 29.1779 29.8414 29.1779H24.7186V27.2674L20.2259 30.1332L24.7186 33V31.0894H29.8414C32.2562 31.0894 33.8048 28.2236 32.5594 26.0141V25.9854L30.27 22.1643V22.1634Z" fill="#008000"/>
</svg>
