<svg width="20" height="21" viewBox="0 0 20 21" fill="none" xmlns="http://www.w3.org/2000/svg">
<path d="M19 4.00138H14V2.33138C13.9765 1.6912 13.7002 1.08644 13.2316 0.649671C12.7629 0.212905 12.1402 -0.0202285 11.5 0.00137844H8.5C7.85975 -0.0202285 7.23706 0.212905 6.76843 0.649671C6.29979 1.08644 6.02346 1.6912 6 2.33138V4.00138H1C0.734783 4.00138 0.48043 4.10674 0.292893 4.29427C0.105357 4.48181 0 4.73616 0 5.00138C0 5.26659 0.105357 5.52095 0.292893 5.70848C0.48043 5.89602 0.734783 6.00138 1 6.00138H2V17.0014C2 17.797 2.31607 18.5601 2.87868 19.1227C3.44129 19.6853 4.20435 20.0014 5 20.0014H15C15.7956 20.0014 16.5587 19.6853 17.1213 19.1227C17.6839 18.5601 18 17.797 18 17.0014V6.00138H19C19.2652 6.00138 19.5196 5.89602 19.7071 5.70848C19.8946 5.52095 20 5.26659 20 5.00138C20 4.73616 19.8946 4.48181 19.7071 4.29427C19.5196 4.10674 19.2652 4.00138 19 4.00138ZM8 14.0014C8 14.2666 7.89464 14.5209 7.70711 14.7085C7.51957 14.896 7.26522 15.0014 7 15.0014C6.73478 15.0014 6.48043 14.896 6.29289 14.7085C6.10536 14.5209 6 14.2666 6 14.0014V10.0014C6 9.73616 6.10536 9.48181 6.29289 9.29427C6.48043 9.10673 6.73478 9.00138 7 9.00138C7.26522 9.00138 7.51957 9.10673 7.70711 9.29427C7.89464 9.48181 8 9.73616 8 10.0014V14.0014ZM8 2.33138C8 2.17138 8.21 2.00138 8.5 2.00138H11.5C11.79 2.00138 12 2.17138 12 2.33138V4.00138H8V2.33138ZM14 14.0014C14 14.2666 13.8946 14.5209 13.7071 14.7085C13.5196 14.896 13.2652 15.0014 13 15.0014C12.7348 15.0014 12.4804 14.896 12.2929 14.7085C12.1054 14.5209 12 14.2666 12 14.0014V10.0014C12 9.73616 12.1054 9.48181 12.2929 9.29427C12.4804 9.10673 12.7348 9.00138 13 9.00138C13.2652 9.00138 13.5196 9.10673 13.7071 9.29427C13.8946 9.48181 14 9.73616 14 10.0014V14.0014Z" fill="#016501"/>
</svg>
