<svg width="24" height="25" viewBox="0 0 24 25" fill="none" xmlns="http://www.w3.org/2000/svg">
<g clip-path="url(#clip0)">
<rect width="24" height="24.2813" fill="#F28E36"/>
<path d="M6.34345 20.7967L6.7358 20.9929C8.37079 21.9738 10.2018 22.4316 12.033 22.4316C17.7878 22.4316 22.4963 17.7231 22.4963 11.9682C22.4963 9.22163 21.3845 6.54038 19.4227 4.57848C17.4608 2.61657 14.8449 1.50488 12.033 1.50488C6.27811 1.50488 1.56951 6.21338 1.63495 12.0337C1.63495 13.9955 2.22351 15.892 3.20442 17.5269L3.46598 17.9193L2.41973 21.7777L6.34345 20.7967Z" fill="#00E676"/>
<path d="M20.5343 3.53137C18.3109 1.24256 15.2373 0 12.0983 0C5.42794 0 0.0654375 5.42784 0.130781 12.0328C0.130781 14.1255 0.719344 16.1528 1.70034 17.9839L0 24.1965L6.34341 22.5616C8.10909 23.5426 10.0709 24.0004 12.0329 24.0004C18.6379 24.0004 24.0004 18.5724 24.0004 11.9676C24.0004 8.76309 22.7578 5.75484 20.5344 3.53137H20.5343ZM12.0983 21.9731C10.3326 21.9731 8.56687 21.5154 7.06275 20.5999L6.67041 20.4037L2.87747 21.3846L3.85837 17.6571L3.59681 17.2646C0.719344 12.6216 2.09269 6.47419 6.80119 3.59672C11.5097 0.719344 17.5915 2.09269 20.469 6.80119C23.3464 11.5097 21.973 17.5915 17.2646 20.469C15.7604 21.4499 13.9294 21.973 12.0983 21.973V21.9731ZM17.8531 14.7142L17.1337 14.3873C17.1337 14.3873 16.0875 13.9295 15.4335 13.6025C15.3681 13.6025 15.3027 13.537 15.2373 13.537C15.0411 13.537 14.9103 13.6025 14.7795 13.6679C14.7795 13.6679 14.7142 13.7333 13.7986 14.7796C13.7332 14.9104 13.6024 14.9758 13.4716 14.9758H13.4062C13.3408 14.9758 13.21 14.9104 13.1446 14.845L12.8176 14.7142C12.0982 14.3872 11.4443 13.9948 10.9211 13.4717C10.7903 13.3409 10.5941 13.2101 10.4633 13.0793C10.0056 12.6216 9.54778 12.0983 9.22087 11.5098L9.15544 11.379C9.09009 11.3136 9.09009 11.2482 9.02466 11.1174C9.02466 10.9867 9.02466 10.8559 9.09009 10.7904C9.09009 10.7904 9.35166 10.4634 9.54778 10.2673C9.67866 10.1364 9.744 9.94031 9.87478 9.80953C10.0056 9.61331 10.071 9.35175 10.0056 9.15553C9.94022 8.82853 9.15544 7.06284 8.95931 6.6705C8.82844 6.47428 8.69775 6.40894 8.50153 6.3435H7.78219C7.65131 6.3435 7.52062 6.40894 7.38975 6.40894L7.32431 6.47428C7.19353 6.53972 7.06275 6.6705 6.93197 6.73584C6.80119 6.86672 6.73575 6.99741 6.60497 7.12828C6.14719 7.71684 5.88562 8.43619 5.88562 9.15553C5.88562 9.67866 6.01641 10.2019 6.21262 10.6597L6.27806 10.8559C6.86663 12.0983 7.65131 13.2101 8.69775 14.191L8.95931 14.4526C9.15544 14.6488 9.35166 14.7796 9.48244 14.9757C10.8558 16.1529 12.4252 17.0031 14.1909 17.4608C14.3872 17.5262 14.6487 17.5262 14.8449 17.5916H15.4988C15.8258 17.5916 16.2182 17.4608 16.4798 17.3301C16.676 17.1993 16.8068 17.1993 16.9375 17.0685L17.0684 16.9376C17.1992 16.8068 17.33 16.7415 17.4608 16.6107C17.5915 16.4799 17.7223 16.3492 17.7878 16.2183C17.9185 15.9567 17.9839 15.6297 18.0493 15.3028V14.845C18.0493 14.845 17.9839 14.7796 17.8531 14.7142Z" fill="white"/>
</g>
<defs>
<clipPath id="clip0">
<rect width="24" height="24.2813" fill="white"/>
</clipPath>
</defs>
</svg>
