<svg width="570" height="319" viewBox="0 0 570 319" fill="none" xmlns="http://www.w3.org/2000/svg">
<path d="M435.772 315.156C428.485 309.388 424.058 300.276 425.219 291.406C426.38 282.536 433.569 274.381 442.895 272.498C452.221 270.614 462.852 275.828 465.684 284.362C467.243 267.909 469.04 250.767 478.377 236.757C486.833 224.07 501.477 214.992 517.349 213.368C533.22 211.744 549.931 217.878 559.829 229.613C569.728 241.347 572.151 258.407 565.219 271.88C560.112 281.805 550.703 289.191 540.845 295.2C508.989 314.453 470.783 322.283 433.255 317.248L435.772 315.156Z" fill="#68CD66"/>
<path d="M544.137 218.221C531.041 228.213 519.026 239.389 508.268 251.586C491.431 270.609 477.806 291.937 467.868 314.827C467.141 316.497 470.036 317.224 470.755 315.573C487.015 278.371 512.972 245.582 546.253 220.204C547.748 219.064 545.619 217.091 544.137 218.221Z" fill="white"/>
<path d="M183.227 313.59C193.235 305.668 199.315 293.153 197.72 280.97C196.126 268.787 186.251 257.587 173.442 254.999C160.633 252.412 146.032 259.574 142.141 271.295C140 248.697 137.533 225.153 124.707 205.909C113.094 188.484 92.9798 176.016 71.1804 173.785C49.3809 171.555 26.4288 179.979 12.8333 196.097C-0.762234 212.215 -4.09104 235.646 5.43091 254.151C12.4454 267.782 25.3686 277.927 38.9088 286.18C82.1069 312.511 135.694 323.493 186.683 316.464" fill="#68CD66"/>
<path d="M34.3896 180.448C52.3768 194.172 68.8782 209.521 83.6551 226.274C98.4344 243.009 111.446 261.048 122.507 280.137C128.69 290.845 134.244 301.861 139.144 313.136C140.143 315.43 136.167 316.428 135.179 314.16C126.499 294.282 115.76 275.249 103.116 257.333C90.5341 239.482 76.1329 222.817 60.1151 207.571C51.0554 198.953 41.4967 190.807 31.4822 183.171C29.4295 181.605 32.3538 178.895 34.3896 180.448L34.3896 180.448Z" fill="white"/>
<path d="M408.565 318.064H169.773V88.5555C169.773 39.7257 212.182 0 264.309 0H314.03C366.157 0 408.565 39.7257 408.565 88.5555V318.064Z" fill="#F2F2F2"/>
<path d="M358.845 318.068H169.774V88.5594C169.722 69.849 176.046 51.6114 187.828 36.5021C188.262 35.9476 188.695 35.4003 189.142 34.859C194.84 27.8579 201.621 21.6922 209.262 16.5653C209.693 16.2712 210.127 15.9821 210.566 15.693C216.96 11.5487 223.875 8.16071 231.156 5.6063C231.589 5.45279 232.029 5.29898 232.469 5.15145C239.054 2.95017 245.88 1.44231 252.821 0.655696C253.251 0.600632 253.693 0.557544 254.135 0.514455C260.899 -0.163022 267.721 -0.163022 274.485 0.514455C274.925 0.557544 275.367 0.600627 275.802 0.656285C282.742 1.44295 289.566 2.95063 296.149 5.15148C296.589 5.29901 297.03 5.45281 297.463 5.60662C304.654 8.1288 311.489 11.4662 317.814 15.5443C318.253 15.8271 318.693 16.1162 319.126 16.4052C323.409 19.2689 327.432 22.4592 331.153 25.9435C334.138 28.7383 336.919 31.7174 339.478 34.8608C339.923 35.4003 340.356 35.9476 340.79 36.5012C352.571 51.6107 358.897 69.8486 358.845 88.5594V318.068Z" fill="#B1824B"/>
<path d="M343.469 215.418C349.25 215.418 353.936 211.027 353.936 205.612C353.936 200.197 349.25 195.807 343.469 195.807C337.687 195.807 333.001 200.197 333.001 205.612C333.001 211.027 337.687 215.418 343.469 215.418Z" fill="#6398FF"/>
<path d="M389.001 311.189H380.98L377.164 282.208L389.002 282.209L389.001 311.189Z" fill="#FFB8B8"/>
<path d="M375.253 309.046H390.721V318.169H365.514C365.514 316.971 365.766 315.785 366.255 314.678C366.745 313.571 367.462 312.565 368.366 311.718C369.271 310.871 370.344 310.199 371.526 309.74C372.708 309.282 373.974 309.046 375.253 309.046Z" fill="#2F2E41"/>
<path d="M428.909 311.189H420.888L417.072 282.208L428.91 282.209L428.909 311.189Z" fill="#FFB8B8"/>
<path d="M415.16 309.046H430.629V318.169H405.421C405.421 316.971 405.673 315.785 406.162 314.678C406.652 313.571 407.369 312.565 408.274 311.718C409.178 310.871 410.252 310.199 411.433 309.74C412.615 309.282 413.881 309.046 415.16 309.046Z" fill="#2F2E41"/>
<path d="M348.764 207.549C348.187 206.752 347.803 205.847 347.64 204.897C347.477 203.946 347.538 202.974 347.819 202.049C348.101 201.123 348.595 200.266 349.268 199.539C349.941 198.812 350.776 198.232 351.715 197.839L378.98 127.444L392.396 134.303L361.265 201.575C361.864 203.095 361.847 204.768 361.217 206.277C360.587 207.787 359.388 209.027 357.847 209.763C356.306 210.5 354.53 210.681 352.856 210.273C351.182 209.864 349.726 208.895 348.764 207.549Z" fill="#FFB8B8"/>
<path d="M424.812 220.78C423.921 220.301 423.152 219.645 422.561 218.858C421.969 218.071 421.569 217.172 421.389 216.225C421.208 215.277 421.252 214.304 421.516 213.374C421.781 212.444 422.26 211.58 422.919 210.842L414.473 136.376L429.741 137.029L433.251 210.276C434.501 211.397 435.269 212.907 435.409 214.523C435.549 216.138 435.052 217.745 434.012 219.04C432.972 220.334 431.461 221.227 429.765 221.547C428.069 221.868 426.307 221.595 424.812 220.78Z" fill="#FFB8B8"/>
<path d="M400.454 114.406C409.328 114.406 416.523 107.667 416.523 99.3543C416.523 91.0413 409.328 84.3022 400.454 84.3022C391.58 84.3022 384.386 91.0413 384.386 99.3543C384.386 107.667 391.58 114.406 400.454 114.406Z" fill="#FFB8B8"/>
<path d="M424.706 203.845H376.263L376.321 203.491C376.408 202.964 384.955 150.518 378.651 133.36C378.019 131.674 378.074 129.829 378.807 128.179C379.54 126.529 380.899 125.191 382.622 124.423H382.622C391.632 120.449 408.927 115.555 423.524 127.432C425.672 129.208 427.35 131.428 428.424 133.917C429.498 136.405 429.939 139.094 429.713 141.77L424.706 203.845Z" fill="#6398FF"/>
<path d="M385.57 158.268L363.761 154.123L373.984 131.43C374.596 129.232 376.113 127.351 378.203 126.2C380.294 125.048 382.786 124.721 385.134 125.288C387.482 125.856 389.493 127.273 390.727 129.228C391.962 131.184 392.317 133.518 391.717 135.718L385.57 158.268Z" fill="#6398FF"/>
<path d="M413.503 165.96L412.192 137.806C411.198 132.513 414.432 127.51 419.407 126.692C424.382 125.877 429.241 129.548 430.24 134.879L435.168 161.187L413.503 165.96Z" fill="#6398FF"/>
<path d="M423.097 200.469C430.892 228.277 431.743 263.634 429.64 302.2L419.172 300.975L400.2 227.434L389.732 302.2L377.956 301.587C374.438 261.122 371.013 226.383 376.648 203.533L423.097 200.469Z" fill="#2F2E41"/>
<path d="M411.042 110.99C408.045 113.981 402.478 112.375 402.087 108.289C402.056 107.972 402.059 107.652 402.094 107.335C402.295 105.525 403.412 103.882 403.144 101.971C403.084 101.495 402.895 101.042 402.595 100.654C400.206 97.6576 394.599 101.994 392.344 99.2816C390.962 97.6184 392.587 94.9996 391.526 93.1406C390.126 90.6871 385.979 91.8974 383.378 90.5537C380.485 89.0587 380.658 84.9001 382.563 82.3707C384.885 79.2859 388.958 77.6398 392.98 77.4026C397.002 77.1654 400.996 78.1838 404.751 79.5545C409.017 81.112 413.248 83.2644 415.873 86.7784C419.066 91.0519 419.373 96.7971 417.777 101.794C416.805 104.834 413.49 108.547 411.042 110.99Z" fill="#2F2E41"/>
<path d="M549.536 318.462H66.5267C66.3205 318.461 66.123 318.384 65.9774 318.247C65.8318 318.111 65.75 317.925 65.75 317.732C65.75 317.539 65.8318 317.354 65.9774 317.217C66.123 317.08 66.3205 317.003 66.5267 317.002H549.536C549.742 317.003 549.94 317.08 550.086 317.217C550.231 317.354 550.313 317.539 550.313 317.732C550.313 317.925 550.231 318.111 550.086 318.247C549.94 318.384 549.742 318.461 549.536 318.462Z" fill="#3F3D56"/>
<path d="M306.831 251.575H221.782C220.662 251.58 219.585 251.17 218.788 250.432C217.991 249.695 217.538 248.692 217.529 247.643V69.8154C217.538 68.7662 217.991 67.763 218.788 67.026C219.585 66.2889 220.662 65.8782 221.782 65.8838H306.831C307.951 65.8782 309.028 66.2889 309.825 67.026C310.622 67.763 311.075 68.7662 311.083 69.8154V247.643C311.075 248.692 310.622 249.695 309.825 250.432C309.028 251.17 307.951 251.58 306.831 251.575Z" fill="white"/>
<path d="M311.083 123.419H217.529V124.645H311.083V123.419Z" fill="#CCCCCC"/>
<path d="M311.409 193.35H217.854V194.576H311.409V193.35Z" fill="#CCCCCC"/>
<path d="M248.278 65.8838H246.97V252.187H248.278V65.8838Z" fill="#CCCCCC"/>
<path d="M280.99 65.8838H279.682V252.187H280.99V65.8838Z" fill="#CCCCCC"/>
</svg>
