<svg width="78" height="78" viewBox="0 0 78 78" fill="none" xmlns="http://www.w3.org/2000/svg">
<circle cx="39" cy="39" r="39" fill="#90B78F"/>
<path fill-rule="evenodd" clip-rule="evenodd" d="M31.2538 37.3601C27.8123 33.4508 25.483 28.66 25.8722 23.2916C26.9937 7.82395 49.243 11.2266 53.5709 19.0334C57.8988 26.8401 57.3846 46.6426 51.7911 48.0379C49.5604 48.5943 44.8084 47.2313 39.972 44.4102L43.0077 65.194H25.083L31.2538 37.3601Z" fill="#B28B67"/>
<path fill-rule="evenodd" clip-rule="evenodd" d="M40.8682 24.9994C41.5543 34.2488 43.3693 38.8736 46.3132 38.8736C50.7293 38.8736 54.476 36.1605 56.4137 36.1605C57.8262 36.1605 57.5108 37.8711 56.5745 39.1394C55.8021 40.1857 52.0403 41.1943 52.0403 42.8165C52.0403 44.4388 55.0124 43.1837 55.0124 44.1458C55.0124 45.7373 55.5347 48.7295 52.6806 48.7295C49.792 48.7295 41.5101 47.7108 40.0908 43.562C39.1748 40.8845 38.5826 35.3362 38.3141 26.9171C38.1389 26.897 37.9605 26.8866 37.7797 26.8866C35.3048 26.8866 33.2985 28.8282 33.2985 31.2232C33.2985 32.4391 33.8156 33.5381 34.6485 34.3255C33.6116 35.7419 32.4495 37.2214 31.1179 38.7482C26.1155 35.8437 22.4033 27.3412 27.2941 19.1734C28.6459 15.1721 31.7062 13.0349 35.3205 12.0425C38.2483 10.8573 41.2876 10.7236 43.8532 11.4342C48.8826 11.8516 53.3735 13.3357 54.6463 14.2171C54.6463 18.8249 53.7237 20.1921 45.8434 20.0716C43.9072 21.0612 42.4186 22.7653 40.8682 24.9994Z" fill="#191847"/>
</svg>
