<svg width="300" height="168" viewBox="0 0 300 168" fill="none" xmlns="http://www.w3.org/2000/svg">
<path d="M229.687 166.113C225.846 163.072 223.513 158.27 224.125 153.595C224.737 148.919 228.526 144.621 233.442 143.628C238.357 142.635 243.96 145.384 245.453 149.882C246.275 141.21 247.222 132.175 252.144 124.79C256.6 118.103 264.319 113.318 272.685 112.462C281.05 111.606 289.858 114.839 295.075 121.024C300.293 127.21 301.57 136.202 297.916 143.303C295.224 148.534 290.265 152.427 285.069 155.594C268.278 165.742 248.141 169.869 228.36 167.215L229.687 166.113Z" fill="#F2F2F2"/>
<path d="M286.804 115.02C279.901 120.287 273.569 126.177 267.898 132.606C259.024 142.633 251.842 153.875 246.604 165.94C246.221 166.82 247.747 167.203 248.126 166.333C256.696 146.724 270.378 129.442 287.92 116.066C288.707 115.465 287.585 114.425 286.804 115.02Z" fill="white"/>
<path d="M96.5752 165.288C101.851 161.112 105.055 154.516 104.215 148.094C103.374 141.672 98.1694 135.769 91.4181 134.405C84.6667 133.042 76.9706 136.817 74.92 142.994C73.7915 131.084 72.491 118.674 65.7309 108.531C59.6098 99.3465 49.0079 92.7747 37.5178 91.599C26.0277 90.4233 13.9301 94.8637 6.76418 103.359C-0.401759 111.854 -2.15631 124.205 2.86253 133.958C6.55973 141.143 13.3713 146.49 20.5081 150.84C43.277 164.719 71.5218 170.507 98.3971 166.802" fill="#F2F2F2"/>
<path d="M18.1259 95.1105C27.6067 102.344 36.3043 110.435 44.0929 119.265C51.8827 128.085 58.7408 137.593 64.5709 147.655C67.8296 153.299 70.757 159.105 73.34 165.048C73.8667 166.257 71.7711 166.783 71.2503 165.588C66.6751 155.11 61.0148 145.078 54.3506 135.635C47.7186 126.226 40.128 117.443 31.6854 109.407C26.9102 104.864 21.872 100.571 16.5935 96.546C15.5116 95.7207 17.0529 94.292 18.1259 95.1105L18.1259 95.1105Z" fill="white"/>
<path d="M215.347 167.646H89.4844V46.6759C89.4844 20.9387 111.837 0 139.312 0H165.519C192.994 0 215.347 20.9387 215.347 46.6759V167.646Z" fill="#F2F2F2"/>
<path d="M189.14 167.648H89.4845V46.678C89.457 36.8161 92.7908 27.2035 99.0003 19.2396C99.2292 18.9474 99.4576 18.6589 99.693 18.3736C102.697 14.6834 106.271 11.4336 110.298 8.73133C110.525 8.57629 110.754 8.42393 110.986 8.27157C114.355 6.08715 118 4.30142 121.838 2.95504C122.066 2.87413 122.298 2.79306 122.53 2.7153C126.001 1.55505 129.599 0.760284 133.257 0.345677C133.484 0.316654 133.717 0.293943 133.95 0.271232C137.515 -0.0858533 141.11 -0.0858533 144.676 0.271232C144.908 0.293943 145.141 0.316651 145.37 0.345987C149.028 0.760622 152.625 1.55529 156.095 2.71532C156.327 2.79308 156.559 2.87414 156.787 2.95521C160.577 4.28461 164.18 6.04368 167.514 8.19319C167.745 8.34224 167.977 8.4946 168.205 8.64696C170.463 10.1563 172.583 11.8379 174.545 13.6744C176.118 15.1475 177.584 16.7177 178.932 18.3745C179.167 18.6589 179.395 18.9474 179.624 19.2392C185.834 27.2031 189.168 36.8159 189.14 46.678V167.648Z" fill="#CCCCCC"/>
<path d="M181.036 113.543C184.083 113.543 186.553 111.229 186.553 108.374C186.553 105.52 184.083 103.206 181.036 103.206C177.988 103.206 175.518 105.52 175.518 108.374C175.518 111.229 177.988 113.543 181.036 113.543Z" fill="#6398FF"/>
<path d="M205.035 164.021H200.808L198.796 148.747L205.036 148.747L205.035 164.021Z" fill="#FFB8B8"/>
<path d="M197.788 162.892H205.942V167.701H192.655C192.655 167.069 192.788 166.444 193.046 165.861C193.304 165.277 193.682 164.747 194.159 164.301C194.635 163.854 195.201 163.5 195.824 163.258C196.447 163.016 197.114 162.892 197.788 162.892Z" fill="#2F2E41"/>
<path d="M226.07 164.021H221.842L219.831 148.747L226.07 148.747L226.07 164.021Z" fill="#FFB8B8"/>
<path d="M218.823 162.892H226.976V167.701H213.689C213.689 167.069 213.822 166.444 214.08 165.861C214.338 165.277 214.716 164.747 215.193 164.301C215.67 163.854 216.236 163.5 216.858 163.258C217.481 163.016 218.149 162.892 218.823 162.892Z" fill="#2F2E41"/>
<path d="M183.827 109.395C183.522 108.975 183.32 108.498 183.234 107.997C183.148 107.496 183.181 106.984 183.329 106.496C183.477 106.008 183.738 105.556 184.093 105.173C184.447 104.79 184.887 104.484 185.382 104.277L199.753 67.1733L206.824 70.7883L190.416 106.246C190.732 107.047 190.722 107.929 190.39 108.725C190.058 109.52 189.426 110.174 188.614 110.562C187.802 110.95 186.866 111.046 185.984 110.831C185.101 110.615 184.334 110.105 183.827 109.395Z" fill="#FFB8B8"/>
<path d="M223.91 116.369C223.44 116.117 223.035 115.771 222.724 115.356C222.412 114.941 222.201 114.468 222.106 113.968C222.011 113.469 222.034 112.956 222.173 112.466C222.313 111.975 222.565 111.52 222.913 111.131L218.461 71.8813L226.508 72.2257L228.358 110.833C229.017 111.423 229.422 112.22 229.496 113.071C229.57 113.922 229.308 114.769 228.759 115.452C228.211 116.134 227.415 116.604 226.521 116.774C225.627 116.943 224.698 116.799 223.91 116.369Z" fill="#FFB8B8"/>
<path d="M211.072 60.3013C215.749 60.3013 219.541 56.7493 219.541 52.3677C219.541 47.9861 215.749 44.4341 211.072 44.4341C206.394 44.4341 202.602 47.9861 202.602 52.3677C202.602 56.7493 206.394 60.3013 211.072 60.3013Z" fill="#FFB8B8"/>
<path d="M223.855 107.443H198.321L198.352 107.257C198.398 106.978 202.902 79.3353 199.58 70.2918C199.247 69.4031 199.276 68.4303 199.662 67.5606C200.049 66.6909 200.765 65.9858 201.673 65.5811H201.673C206.422 63.4862 215.538 60.9067 223.232 67.1668C224.364 68.1032 225.248 69.2735 225.814 70.5851C226.38 71.8968 226.613 73.3138 226.494 74.7241L223.855 107.443Z" fill="#6398FF"/>
<path d="M203.227 83.42L191.731 81.2354L197.12 69.2742C197.442 68.1157 198.242 67.1243 199.344 66.5174C200.445 65.9106 201.759 65.7378 202.997 66.0371C204.234 66.3364 205.294 67.0832 205.945 68.1138C206.595 69.1444 206.783 70.3745 206.466 71.5345L203.227 83.42Z" fill="#6398FF"/>
<path d="M217.95 87.4746L217.258 72.6348C216.734 69.8451 218.439 67.208 221.061 66.777C223.684 66.3475 226.244 68.2823 226.771 71.0924L229.368 84.9588L217.95 87.4746Z" fill="#6398FF"/>
<path d="M223.006 105.663C227.115 120.321 227.563 138.956 226.455 159.284L220.937 158.638L210.937 119.876L205.42 159.284L199.213 158.961C197.359 137.632 195.553 119.322 198.523 107.278L223.006 105.663Z" fill="#2F2E41"/>
<path d="M216.653 58.5006C215.073 60.0771 212.138 59.2308 211.932 57.077C211.916 56.9098 211.917 56.7415 211.936 56.5745C212.042 55.6204 212.631 54.7542 212.49 53.7469C212.458 53.4962 212.358 53.2573 212.2 53.0528C210.941 51.4734 207.985 53.7592 206.797 52.3294C206.069 51.4528 206.925 50.0725 206.366 49.0926C205.628 47.7994 203.442 48.4374 202.071 47.7291C200.546 46.9412 200.638 44.7492 201.641 43.416C202.866 41.7901 205.012 40.9225 207.132 40.7974C209.252 40.6724 211.357 41.2092 213.337 41.9317C215.585 42.7526 217.815 43.8871 219.199 45.7393C220.882 47.9917 221.044 51.0199 220.202 53.6537C219.69 55.2559 217.943 57.2131 216.653 58.5006Z" fill="#2F2E41"/>
<path d="M289.65 167.855H35.0652C34.9565 167.855 34.8523 167.814 34.7756 167.742C34.6989 167.67 34.6558 167.572 34.6558 167.471C34.6558 167.369 34.6989 167.271 34.7756 167.199C34.8523 167.127 34.9565 167.086 35.0652 167.086H289.65C289.759 167.086 289.863 167.127 289.94 167.199C290.016 167.271 290.06 167.369 290.06 167.471C290.06 167.572 290.016 167.67 289.94 167.742C289.863 167.814 289.759 167.855 289.65 167.855Z" fill="#3F3D56"/>
<path d="M161.724 132.6H116.897C116.306 132.603 115.739 132.387 115.319 131.998C114.898 131.61 114.66 131.081 114.655 130.528V36.7984C114.66 36.2453 114.898 35.7166 115.319 35.3281C115.739 34.9396 116.306 34.7231 116.897 34.7261H161.724C162.315 34.7231 162.882 34.9396 163.303 35.3281C163.723 35.7166 163.961 36.2453 163.966 36.7984V130.528C163.961 131.081 163.723 131.61 163.303 131.998C162.882 132.387 162.315 132.603 161.724 132.6Z" fill="white"/>
<path d="M163.966 65.0518H114.655V65.6978H163.966V65.0518Z" fill="#CCCCCC"/>
<path d="M164.138 101.911H114.827V102.557H164.138V101.911Z" fill="#CCCCCC"/>
<path d="M130.863 34.7261H130.173V132.923H130.863V34.7261Z" fill="#CCCCCC"/>
<path d="M148.104 34.7261H147.415V132.923H148.104V34.7261Z" fill="#CCCCCC"/>
</svg>
